<svg width="1024" height="1024" viewBox="0 0 32 32" xmlns="http://www.w3.org/2000/svg">
  <defs>
    <linearGradient id="chipBg" x1="4" y1="2" x2="29" y2="31" gradientUnits="userSpaceOnUse">
      <stop offset="0" stop-color="#2A2416"/>
      <stop offset="0.48" stop-color="#111317"/>
      <stop offset="1" stop-color="#07080A"/>
    </linearGradient>
    <linearGradient id="hermesGold" x1="4" y1="3" x2="28" y2="29" gradientUnits="userSpaceOnUse">
      <stop offset="0" stop-color="#FCEFC2"/>
      <stop offset="0.32" stop-color="#F1CC6E"/>
      <stop offset="0.6" stop-color="#E7B84E"/>
      <stop offset="1" stop-color="#C18B2C"/>
    </linearGradient>
    <filter id="shadow" x="-30%" y="-30%" width="160%" height="160%">
      <feDropShadow dx="0" dy="1.4" stdDeviation="1.2" flood-color="#000000" flood-opacity="0.5"/>
      <feDropShadow dx="0" dy="0" stdDeviation="1.1" flood-color="#E7B84E" flood-opacity="0.28"/>
    </filter>
  </defs>

  <rect x="1" y="1" width="30" height="30" rx="9.5" fill="url(#chipBg)"/>
  <rect x="1.35" y="1.35" width="29.3" height="29.3" rx="9.15" fill="none" stroke="#E7B84E" stroke-opacity="0.24" stroke-width="0.7"/>
  <rect x="2.25" y="2.25" width="27.5" height="27.5" rx="8.2" fill="none" stroke="#FFFFFF" stroke-opacity="0.055" stroke-width="0.35"/>

  <g filter="url(#shadow)">
    <rect x="15" y="6.5" width="2" height="20.5" rx="1" fill="#F1CC6E"/>
    <circle cx="16" cy="6" r="2.7" fill="#FCEFC2"/>
    <path d="M15 11.6 C 10.5 8.4, 6 9, 3.8 12.4 C 7.6 11.1, 11.1 12.7, 14 16.2 Z" fill="#E7B84E"/>
    <path d="M17 11.6 C 21.5 8.4, 26 9, 28.2 12.4 C 24.4 11.1, 20.9 12.7, 18 16.2 Z" fill="#E7B84E"/>
    <path d="M14.4 18.6 C 11.4 16.8, 8.6 17.2, 6.8 19" stroke="#F1CC6E" stroke-width="1.5" stroke-linecap="round" fill="none" opacity="0.55"/>
    <path d="M17.6 18.6 C 20.6 16.8, 23.4 17.2, 25.2 19" stroke="#F1CC6E" stroke-width="1.5" stroke-linecap="round" fill="none" opacity="0.55"/>
  </g>
</svg>
